<svg xmlns="http://www.w3.org/2000/svg" width="1440" height="300" viewBox="0 0 1440 300"><g><g><path fill="#a6367e" d="M0 235.848l15-10.726c15-10.324 45-32.377 75-69.465s60-91.217 90-85.503c30 5.313 60 69.465 90 101.541 30 32.076 60 32.076 90 37.389 30 5.714 60 15.737 90-10.625 30-26.764 60-90.916 90-90.916s60 64.152 90 74.878c30 10.324 60-31.776 90-32.076 30 .3 60 42.4 90 37.388 30-5.012 60-59.14 90-74.878 30-16.338 60 5.714 90-10.625 30-15.737 60-69.866 90-90.916 30-21.05 60-11.026 90 16.038 30 27.065 60 69.165 90 96.229 30 27.064 60 37.088 90 37.389 30-.301 60-10.325 75-16.038l15-5.313V300H0z"/></g></g></svg>