<svg xmlns="http://www.w3.org/2000/svg" width="211.77" height="80.001" viewBox="0 0 211.77 80.001">
  <g id="Group_2" data-name="Group 2" transform="translate(-1009.909 -452.549)">
    <g id="point" transform="translate(0 2)">
      <g id="Group_9" data-name="Group 9">
        <path id="Path_36" data-name="Path 36" d="M1153.807,469.139h7.807v28.5h-7.807Z"/>
        <path id="Path_31" data-name="Path 31" d="M1084.91,469.139h7.807v3.192a10.384,10.384,0,0,1,8.269-3.82c7.58,0,13.394,6.783,13.394,14.876s-5.814,14.876-13.394,14.876a10.387,10.387,0,0,1-8.264-3.819v15.1h-7.807Zm14.362,6.5c-4.275,0-7.181,3.3-7.181,7.751s2.906,7.751,7.181,7.751,7.181-3.3,7.181-7.751-2.906-7.754-7.181-7.754Z"/>
        <path id="Path_32" data-name="Path 32" d="M1133.179,498.263a14.931,14.931,0,1,1,.119,0Zm0-7.3c4.1,0,7.067-3.192,7.067-7.58s-2.967-7.572-7.067-7.572-7.124,3.191-7.124,7.58,3.024,7.577,7.124,7.577Z"/>
        <path id="Path_33" data-name="Path 33" d="M1157.682,464.466a4.959,4.959,0,1,1,5.015-4.959A4.959,4.959,0,0,1,1157.682,464.466Z" fill="#b83b8c"/>
        <path id="Path_34" data-name="Path 34" d="M1169.137,469.139h7.807v3.249c1.483-2.281,4.446-3.876,8.151-3.876,6.9,0,11,5.015,11,12.425v16.7h-7.808V482.248c0-4.1-1.768-6.612-5.016-6.612-3.59,0-6.327,2.621-6.327,8.092v13.908h-7.807Z"/>
        <path id="Path_35" data-name="Path 35" d="M1216.722,497.978c-6.042,0-10.886-3.362-10.886-10.316V475.98h-5.757v-6.84h5.757v-7.927h7.807v7.922h8.036v6.84h-8.036v10.144c0,3.477,1.483,4.845,4.845,4.845a8.931,8.931,0,0,0,3.191-.513v6.9A16.124,16.124,0,0,1,1216.722,497.978Z"/>
      </g>
    </g>
    <g id="Group_1" data-name="Group 1">
      <path id="Path_1" data-name="Path 1" d="M1056.083,479.36a14.346,14.346,0,0,0-6.8-6.793c-.229-.11-.463-.214-.7-.31-.117-.05-.236-.1-.356-.143a.145.145,0,0,0-.029-.011c-.109-.042-.219-.082-.329-.12-.181-.066-.366-.127-.55-.183-.134-.042-.267-.08-.4-.117-.082-.024-.163-.045-.243-.066-.1-.025-.194-.049-.292-.072q-.34-.081-.684-.144c-.069-.014-.137-.025-.206-.038-.12-.019-.239-.039-.359-.056-.066-.01-.131-.019-.2-.027-.207-.028-.413-.05-.62-.069l-.19-.015c-.057-.005-.112-.008-.167-.011-.08-.006-.16-.01-.24-.013-.12-.006-.239-.009-.359-.013-.093,0-.186,0-.28,0s-.2,0-.3,0-.18,0-.269.008-.184.007-.277.013-.185.011-.276.019c-.075.005-.149.012-.224.02-.136.011-.274.027-.41.045s-.277.033-.415.056a.73.73,0,0,0-.08.012c-.074.01-.147.023-.221.036-.014,0-.029,0-.042.008q-.257.042-.512.1c-.09.017-.178.036-.268.059-.2.048-.4.1-.595.154-.066.017-.132.038-.2.057-.148.042-.295.088-.442.138-.036.011-.071.022-.106.035-.051.016-.1.035-.155.055-.1.033-.2.069-.3.107a.208.208,0,0,0-.035.013c-.1.038-.2.078-.3.12-.034.013-.068.027-.1.042-.107.043-.215.089-.321.137-.126.056-.252.114-.377.173q-.279.135-.55.279a14.542,14.542,0,0,0-6.108,6.238c-.039.079-.079.157-.116.236a.422.422,0,0,0-.02.041c-.052.109-.1.218-.151.327-.04.088-.078.176-.115.266s-.077.179-.111.269-.072.181-.1.272-.069.183-.1.274h27.179a15.009,15.009,0,0,0-.582-1.408Z" fill="#b83b8c"/>
      <path id="Path_2" data-name="Path 2" d="M1066.62,462.36l-.03-.03a.091.091,0,0,0-.1-.03,33.114,33.114,0,0,0-46.93,46.73l23.52,23.52,23.41-23.42A33.072,33.072,0,0,0,1066.62,462.36Zm.464,24.075c0,.116-.008.231-.014.346,0,.077-.008.154-.013.231-.011.194-.024.386-.042.577-.006.092-.014.184-.024.275-.033.373-.078.742-.131,1.108-.016.112-.032.225-.05.337q-.048.3-.1.6c-.015.079-.028.159-.044.236s-.032.155-.048.234h-37.129c.043.12.086.24.131.358.138.356.288.707.452,1.049v0a14.349,14.349,0,0,0,6.794,6.794l.061.029.2.094.127.056c.141.063.283.124.428.181l.081.032c.138.055.277.108.417.157.078.029.157.056.235.083s.157.053.236.079q.357.115.717.211l.242.063.243.058c.405.092.816.168,1.229.227s.829.1,1.247.12c.167.008.335.014.5.018.207,0,.415,0,.623,0h.045c.122,0,.244-.007.367-.015s.255-.016.381-.027h.024c.127-.01.252-.023.378-.037s.237-.027.354-.043c.032,0,.064-.008.1-.015.1-.013.209-.029.314-.046l.032-.007c.085-.014.171-.029.256-.045.106-.019.211-.04.315-.062.034-.006.069-.014.1-.022.053-.012.107-.023.16-.036.074-.016.146-.033.22-.053.128-.03.256-.064.382-.1.056-.014.112-.03.167-.046.11-.032.219-.064.328-.1.124-.038.245-.078.369-.12l.038-.014c.248-.087.5-.179.742-.28h0c.089-.037.179-.076.269-.116.073-.03.147-.062.219-.1.09-.039.178-.08.268-.124a14.425,14.425,0,0,0,4.537-3.4h11.28a23.648,23.648,0,0,1-2.394,4.236c-.023.033-.045.065-.069.1q-.142.2-.29.4l-.056.077c-.085.112-.172.222-.256.334s-.173.223-.261.332-.178.218-.27.327-.184.216-.277.323-.174.2-.264.3c-.1.114-.2.224-.307.335-.084.09-.167.179-.254.267-.112.119-.227.236-.344.353l-3.4,3.4L1043.422,519.2l-.346.346-.346-.346-16.642-16.642c-.312-.312-.617-.633-.91-.961-.088-.1-.176-.2-.259-.3s-.186-.214-.277-.323-.181-.218-.269-.327c-.063-.077-.125-.154-.186-.232l-.2-.255q-.266-.347-.517-.7-.129-.183-.255-.367c-.059-.087-.118-.175-.176-.263-.072-.107-.142-.216-.211-.325-.05-.078-.1-.157-.149-.237q-.31-.5-.6-1.014a23.489,23.489,0,0,1-1.818-4.147c-.02-.061-.041-.121-.06-.182s-.048-.147-.07-.221c-.04-.131-.08-.264-.119-.4-.028-.1-.059-.2-.086-.3l0-.009c-.029-.1-.058-.207-.085-.311s-.051-.2-.075-.3a.216.216,0,0,1-.008-.032c-.021-.083-.04-.165-.06-.248-.009-.038-.019-.078-.029-.117l-.019-.088c-.016-.069-.032-.136-.046-.205-.019-.088-.039-.176-.056-.264-.031-.148-.059-.3-.087-.444l-.024-.123-.006-.04c-.015-.084-.029-.164-.043-.245-.023-.133-.045-.266-.064-.4s-.045-.3-.065-.456c-.011-.079-.02-.155-.03-.234V488.5c-.005-.032-.01-.064-.013-.1-.009-.072-.017-.144-.024-.218-.011-.1-.022-.206-.03-.31l0-.01c-.009-.091-.017-.183-.024-.275v-.008c-.006-.053-.011-.108-.014-.161s-.007-.078-.008-.118c-.007-.063-.011-.125-.015-.187-.008-.125-.014-.249-.021-.372v-.008c0-.1-.008-.192-.011-.288-.005-.137-.008-.273-.011-.409,0-.154-.005-.309-.005-.464s0-.309.005-.465v-.025c0-.125.006-.249.011-.372,0-.022,0-.043,0-.066,0-.048.005-.094.006-.142s0-.091.007-.138c0-.077.008-.154.013-.231l0-.1c0-.038.005-.075.008-.114,0-.054.008-.107.013-.161s.01-.133.016-.2c.007-.093.015-.184.024-.276s.019-.2.031-.3c.012-.119.025-.235.04-.351,0-.021,0-.04.008-.061.011-.093.022-.184.036-.275.005-.042.01-.082.016-.122l.029-.195,0-.016c0-.042.011-.084.017-.125.011-.067.021-.135.034-.2.014-.084.029-.169.043-.252.011-.067.024-.133.035-.2a.341.341,0,0,1,.01-.05l0-.012.058-.3a.07.07,0,0,1,.005-.026l.019-.094c.014-.074.03-.146.046-.22s.031-.142.047-.213c0-.016.008-.033.011-.049a23.571,23.571,0,0,1,3.53-8.12c.061-.089.12-.177.181-.263.1-.146.2-.292.31-.436.061-.08.121-.161.181-.242l.032-.04c.156-.209.318-.419.486-.626l.269-.327c.091-.108.184-.216.277-.323s.175-.2.264-.3l.079-.087c.166-.182.336-.365.509-.544.01-.01.019-.019.029-.031.094-.1.19-.2.288-.293q.32-.32.649-.624c.051-.048.1-.1.157-.144.257-.234.517-.463.781-.684.079-.066.157-.13.236-.194l.235-.191c.08-.065.162-.129.244-.19.253-.2.507-.386.767-.57.15-.108.3-.215.456-.318.085-.057.171-.115.258-.171.15-.1.3-.2.455-.291a23.141,23.141,0,0,1,3.722-1.9c.069-.028.138-.056.207-.081.032-.015.065-.027.1-.04q.086-.035.174-.066l.146-.056c.021-.008.042-.016.063-.022.068-.028.137-.053.208-.077l.136-.048c.046-.018.093-.034.138-.048.072-.026.144-.05.216-.074l.17-.056.163-.055h0l.188-.057a.462.462,0,0,1,.049-.016l.169-.052.043-.012c.077-.023.152-.047.229-.069.166-.048.336-.1.5-.14h0l.285-.073c.132-.034.263-.064.394-.1l.393-.088q.141-.031.285-.057c.12-.026.24-.048.36-.071.023,0,.044-.008.066-.011l.261-.047.024,0,.058-.01h0l.058-.01.2-.033c.112-.018.224-.034.336-.05l.089-.013c.078-.011.158-.021.237-.03.043-.007.088-.013.133-.018l.35-.04c.071-.008.143-.016.215-.022l.085-.008.07-.007.205-.017c.1-.01.191-.016.287-.023.062-.006.125-.011.187-.014l.1-.005c.077,0,.154-.01.231-.013l.137-.006c.047,0,.095-.005.143-.006l.065,0c.124-.005.247-.008.372-.011h.026c.153,0,.309-.005.464-.005.122,0,.245,0,.367,0s.223,0,.333.008c.056,0,.11,0,.165.005.1,0,.192.006.288.011l.289.016.1.005c.062,0,.125.008.187.014l.119.008c.056.005.112.008.168.015.077.005.152.011.229.019.019,0,.04,0,.059.006.1.008.191.018.287.029s.213.023.319.037l.254.032.178.024.024,0c.079.01.157.023.237.036h.005l.176.027.064.009a23.609,23.609,0,0,1,8.634,3.186l.361.224c.136.085.272.173.406.263s.247.166.37.25.245.169.367.258c.092.065.183.131.272.2.151.111.3.224.449.34.08.061.158.123.237.185s.157.125.235.189c.189.156.377.313.563.475.052.044.1.091.157.137.371.329.736.671,1.09,1.025.1.1.194.2.289.293.009.012.019.021.028.031q.259.268.51.544c.025.029.052.058.078.087.09.1.178.2.264.3s.186.215.277.323l.27.327c.088.109.174.221.261.332s.171.222.256.334l.213.289c.211.29.415.581.61.877l-.006.007h0a24.066,24.066,0,0,1,2.429,4.732c.055.142.108.285.159.427l.1.276c.022.062.043.125.064.187.029.086.058.173.085.259s.048.148.07.221c.04.132.08.265.119.4.03.1.061.207.09.311s.057.206.084.31.056.217.084.327.059.244.088.365c.022.1.045.2.065.293s.039.177.057.265q.057.283.11.567c.016.1.034.19.05.285.049.283.091.568.128.857.011.078.021.155.03.233.026.212.05.425.069.639.01.092.018.183.024.276.016.191.031.383.042.575.006.093.011.186.016.279.019.386.027.772.027,1.161,0,.163,0,.328-.005.49C1067.092,486.189,1067.089,486.312,1067.084,486.435Z" fill="#b83b8c"/>
    </g>
  </g>
</svg>
